<?xml version="1.0" encoding="utf-8"?>
<!-- Generator: Adobe Illustrator 16.0.0, SVG Export Plug-In . SVG Version: 6.00 Build 0)  -->
<svg version="1.2" baseProfile="tiny" id="Layer_1" xmlns="http://www.w3.org/2000/svg" xmlns:xlink="http://www.w3.org/1999/xlink"
	 x="0px" y="0px" width="37.103px" height="27.085px" viewBox="0 0 37.103 27.085" xml:space="preserve">
<g>
	<path fill="#231F20" d="M34.857,7.502h-7.042V6.414h7.042V7.502z M34.857,8.212h-7.042v1.089h7.042V8.212z M34.853,3.277h-7.031
		v2.396h7.031V3.277z M37.103,0.7v25.686c0,0.385-0.314,0.699-0.7,0.699h-10.13c-0.388,0-0.7-0.314-0.7-0.699V0.7
		c0-0.386,0.313-0.7,0.7-0.7h10.13C36.789,0,37.103,0.314,37.103,0.7z M35.702,1.398h-8.731v24.287h8.731V1.398z M34.857,10.01
		h-7.042v1.087h7.042V10.01z M33.712,18.115c0,1.252-1.013,2.262-2.262,2.262c-1.25,0-2.262-1.012-2.262-2.262
		c0-1.248,1.013-2.262,2.262-2.262S33.712,16.867,33.712,18.115z M32.896,18.115c0-0.797-0.646-1.447-1.445-1.447
		c-0.801,0-1.447,0.648-1.447,1.447c0,0.797,0.646,1.443,1.447,1.443C32.249,19.558,32.896,18.912,32.896,18.115z M23.648,4.928
		v14.558c0,0.877-0.706,1.588-1.575,1.588h-7.865c0,0-0.446,3.178,2.385,3.178v1.59h-2.385H9.441H7.056v-1.588
		c2.727,0,2.385-3.178,2.385-3.178H1.579C0.707,21.076,0,20.367,0,19.488V4.928C0,4.05,0.707,3.343,1.579,3.343h20.493
		C22.942,3.343,23.648,4.05,23.648,4.928z M13.293,19.132c0-0.754-0.61-1.363-1.362-1.363c-0.753,0-1.365,0.609-1.365,1.363
		c0,0.752,0.61,1.363,1.365,1.363C12.685,20.496,13.293,19.884,13.293,19.132z M21.96,5.027H1.69v12.277h20.269h0.001V5.027z
		 M11.945,18.279c-0.468,0-0.847,0.379-0.847,0.846s0.38,0.848,0.847,0.848s0.846-0.381,0.846-0.848S12.413,18.279,11.945,18.279z"
		/>
</g>
</svg>
