<?xml version="1.0" encoding="utf-8"?>
<!-- Generator: Adobe Illustrator 16.0.0, SVG Export Plug-In . SVG Version: 6.00 Build 0)  -->
<!DOCTYPE svg PUBLIC "-//W3C//DTD SVG 1.1//EN" "http://www.w3.org/Graphics/SVG/1.1/DTD/svg11.dtd">
<svg version="1.1" id="Layer_1" xmlns="http://www.w3.org/2000/svg" xmlns:xlink="http://www.w3.org/1999/xlink" x="0px" y="0px"
	 width="866.051px" height="87.548px" viewBox="0 0 866.051 87.548" enable-background="new 0 0 866.051 87.548"
	 xml:space="preserve">
<rect y="79.699" fill="#ACDD26" width="866.051" height="7.849"/>
<g>
	<g>
		<g>
			<polygon fill="#5A4A42" points="642.341,56.828 638.813,56.828 638.057,82.945 643.097,82.945 			"/>
			<circle fill="#7CA836" cx="640.75" cy="51.126" r="10.692"/>
			<circle fill="#8BC53F" cx="641.708" cy="50.696" r="9.735"/>
		</g>
		<g>
			<g>
				<polygon fill="#7CA836" points="640.796,61.289 641.325,61.289 641.325,47.446 645.103,44.842 644.804,44.407 640.796,47.17 
									"/>
			</g>
			<g>
				
					<rect x="640.643" y="50.33" transform="matrix(-0.8232 0.5677 -0.5677 -0.8232 1201.061 -272.8165)" fill="#7CA836" width="4.729" height="0.527"/>
			</g>
			<g>
				
					<rect x="640.643" y="55.239" transform="matrix(-0.8233 0.5676 -0.5676 -0.8233 1203.9025 -263.7707)" fill="#7CA836" width="4.728" height="0.528"/>
			</g>
			<g>
				
					<rect x="638.877" y="45.594" transform="matrix(-0.5687 0.8225 -0.8225 -0.5687 1042.0847 -450.4763)" fill="#7CA836" width="0.527" height="4.728"/>
			</g>
			<g>
				
					<rect x="638.877" y="50.503" transform="matrix(-0.5679 0.8231 -0.8231 -0.5679 1045.6005 -443.2039)" fill="#7CA836" width="0.528" height="4.728"/>
			</g>
		</g>
	</g>
	<g>
		<polygon fill="#5A4A42" points="831.23,61.122 828.282,61.122 827.65,82.945 831.862,82.945 		"/>
		<path fill="#ACDD26" d="M838.835,56.356c0,4.936-3.999,12.277-8.934,12.277s-8.936-7.342-8.936-12.277
			c0-4.934,4.001-25.646,8.936-25.646S838.835,51.423,838.835,56.356z"/>
	</g>
	<g>
		<g>
			<polygon fill="#5A4A42" points="208.385,56.828 204.857,56.828 204.101,82.945 209.141,82.945 			"/>
			<circle fill="#7CA836" cx="206.794" cy="51.126" r="10.692"/>
			<circle fill="#8BC53F" cx="207.751" cy="50.696" r="9.735"/>
		</g>
		<g>
			<g>
				<polygon fill="#7CA836" points="206.744,61.289 207.272,61.289 207.272,47.446 211.05,44.842 210.751,44.407 206.744,47.17 				
					"/>
			</g>
			<g>
				
					<rect x="206.59" y="50.33" transform="matrix(-0.8232 0.5677 -0.5677 -0.8232 409.692 -26.3884)" fill="#7CA836" width="4.729" height="0.527"/>
			</g>
			<g>
				
					<rect x="206.591" y="55.239" transform="matrix(-0.8233 0.5676 -0.5676 -0.8233 412.4915 -17.4033)" fill="#7CA836" width="4.728" height="0.528"/>
			</g>
			<g>
				
					<rect x="204.824" y="45.594" transform="matrix(-0.5687 0.8225 -0.8225 -0.5687 361.1739 -93.4569)" fill="#7CA836" width="0.527" height="4.728"/>
			</g>
			<g>
				
					<rect x="204.824" y="50.503" transform="matrix(-0.5679 0.8231 -0.8231 -0.5679 365.0654 -85.9249)" fill="#7CA836" width="0.528" height="4.728"/>
			</g>
		</g>
	</g>
	<g>
		<polygon fill="#5A4A42" points="376.987,63.479 374.039,63.479 373.407,85.302 377.619,85.302 		"/>
		<path fill="#ACDD26" d="M384.592,58.713c0,4.936-3.999,12.277-8.934,12.277s-8.936-7.342-8.936-12.277
			c0-4.934,4.001-25.646,8.936-25.646S384.592,53.779,384.592,58.713z"/>
	</g>
	<g>
		<polygon fill="#5A4A42" points="651.194,54.03 647.288,54.03 646.451,82.945 652.031,82.945 		"/>
		<path fill="#ACDD26" d="M661.27,47.718c0,6.538-5.298,16.266-11.836,16.266s-11.839-9.728-11.839-16.266
			c0-6.537,5.301-33.979,11.839-33.979S661.27,41.181,661.27,47.718z"/>
	</g>
	<g>
		<g>
			<polygon fill="#473730" points="38.823,46.454 42.225,49.856 24.659,68.882 19.799,64.021 			"/>
			<polygon fill="#5A4A42" points="19.258,33.144 26.39,33.144 27.918,85.945 17.729,85.945 			"/>
			<circle fill="#8BC53F" cx="44.089" cy="43.874" r="11.582"/>
			<circle fill="#7CA836" cx="22.472" cy="21.616" r="21.616"/>
			<circle fill="#8BC53F" cx="20.538" cy="20.749" r="19.682"/>
		</g>
		<g>
			<g>
				<polygon fill="#7CA836" points="22.063,43.233 21.063,43.233 21.063,16.977 13.896,12.036 14.463,11.212 22.063,16.451 				"/>
			</g>
			<g>
				
					<rect x="13.387" y="22.446" transform="matrix(0.8234 0.5675 -0.5675 0.8234 16.1794 -6.0891)" fill="#7CA836" width="8.969" height="1.001"/>
			</g>
			<g>
				
					<rect x="13.387" y="31.757" transform="matrix(0.8234 0.5675 -0.5675 0.8234 21.4639 -4.4443)" fill="#7CA836" width="8.969" height="1.001"/>
			</g>
			<g>
				
					<rect x="24.705" y="13.462" transform="matrix(0.567 0.8237 -0.8237 0.567 25.6957 -12.9915)" fill="#7CA836" width="1.001" height="8.968"/>
			</g>
			<g>
				
					<rect x="24.705" y="22.774" transform="matrix(0.567 0.8237 -0.8237 0.567 33.3656 -8.9599)" fill="#7CA836" width="1.001" height="8.968"/>
			</g>
		</g>
		<g>
			<g>
				<polygon fill="#7CA836" points="36.219,52.127 35.823,51.73 46.235,41.318 45.351,36.519 45.903,36.416 46.838,41.506 				"/>
			</g>
			<g>
				
					<rect x="40.086" y="42.139" transform="matrix(0.1807 0.9835 -0.9835 0.1807 76.6223 -7.1468)" fill="#7CA836" width="5.03" height="0.561"/>
			</g>
			<g>
				
					<rect x="36.395" y="45.832" transform="matrix(0.181 0.9835 -0.9835 0.181 77.2192 -0.499)" fill="#7CA836" width="5.029" height="0.561"/>
			</g>
			<g>
				
					<rect x="47.212" y="40.831" transform="matrix(-0.179 0.9838 -0.9838 -0.179 98.641 4.381)" fill="#7CA836" width="0.562" height="5.029"/>
			</g>
			<g>
				
					<rect x="43.519" y="44.523" transform="matrix(-0.1807 0.9835 -0.9835 -0.1807 97.9789 12.4602)" fill="#7CA836" width="0.562" height="5.029"/>
			</g>
		</g>
	</g>
	<g>
		<g>
			<polygon fill="#473730" points="233.092,46.454 229.69,49.856 247.256,68.882 252.116,64.021 			"/>
			<polygon fill="#5A4A42" points="252.657,33.144 245.525,33.144 243.997,85.945 254.186,85.945 			"/>
			<circle fill="#8BC53F" cx="227.826" cy="43.874" r="11.582"/>
			<circle fill="#7CA836" cx="249.443" cy="21.616" r="21.616"/>
			<circle fill="#8BC53F" cx="251.377" cy="20.749" r="19.682"/>
		</g>
		<g>
			<g>
				<polygon fill="#7CA836" points="249.492,43.233 250.492,43.233 250.492,16.977 257.659,12.036 257.092,11.212 249.492,16.451 
									"/>
			</g>
			<g>
				
					<rect x="249.2" y="22.446" transform="matrix(-0.8233 0.5676 -0.5676 -0.8233 475.5676 -102.1532)" fill="#7CA836" width="8.967" height="1"/>
			</g>
			<g>
				
					<rect x="249.2" y="31.758" transform="matrix(-0.8233 0.5676 -0.5676 -0.8233 480.8528 -85.1754)" fill="#7CA836" width="8.967" height="1"/>
			</g>
			<g>
				
					<rect x="245.849" y="13.462" transform="matrix(-0.567 0.8237 -0.8237 -0.567 400.8177 -174.7955)" fill="#7CA836" width="1.001" height="8.968"/>
			</g>
			<g>
				
					<rect x="245.849" y="22.774" transform="matrix(-0.567 0.8237 -0.8237 -0.567 408.4877 -160.2041)" fill="#7CA836" width="1.001" height="8.968"/>
			</g>
		</g>
		<g>
			<g>
				<polygon fill="#7CA836" points="235.583,52.372 235.979,51.976 225.567,41.563 226.45,36.764 225.898,36.661 224.961,41.751 
									"/>
			</g>
			<g>
				
					<rect x="226.684" y="42.385" transform="matrix(-0.1809 0.9835 -0.9835 -0.1809 312.6302 -175.0317)" fill="#7CA836" width="5.03" height="0.561"/>
			</g>
			<g>
				
					<rect x="230.378" y="46.078" transform="matrix(-0.1806 0.9836 -0.9836 -0.1806 320.5467 -174.3329)" fill="#7CA836" width="5.029" height="0.56"/>
			</g>
			<g>
				
					<rect x="224.027" y="41.076" transform="matrix(0.1807 0.9835 -0.9835 0.1807 226.6442 -184.9017)" fill="#7CA836" width="0.562" height="5.03"/>
			</g>
			<g>
				
					<rect x="227.72" y="44.769" transform="matrix(0.1824 0.9832 -0.9832 0.1824 232.9035 -185.5174)" fill="#7CA836" width="0.562" height="5.028"/>
			</g>
		</g>
	</g>
	<g>
		<g>
			<polygon fill="#473730" points="507.432,46.405 504.199,49.64 520.896,67.724 525.515,63.104 			"/>
			<polygon fill="#5A4A42" points="526.032,33.753 519.25,33.753 517.798,83.945 527.485,83.945 			"/>
			<circle fill="#8BC53F" cx="502.427" cy="43.952" r="11.01"/>
			<circle fill="#7CA836" cx="522.974" cy="22.794" r="20.549"/>
			<circle fill="#8BC53F" cx="524.814" cy="21.97" r="18.709"/>
		</g>
		<g>
			<g>
				<polygon fill="#7CA836" points="523.208,43.233 524.208,43.233 524.208,16.977 531.375,12.036 530.808,11.212 523.208,16.451 
									"/>
			</g>
			<g>
				
					<rect x="522.916" y="22.446" transform="matrix(-0.8233 0.5676 -0.5676 -0.8233 974.6348 -257.5144)" fill="#7CA836" width="8.967" height="1"/>
			</g>
			<g>
				
					<rect x="522.916" y="31.758" transform="matrix(-0.8233 0.5676 -0.5676 -0.8233 979.9199 -240.5367)" fill="#7CA836" width="8.967" height="1"/>
			</g>
			<g>
				
					<rect x="519.565" y="13.462" transform="matrix(-0.567 0.8237 -0.8237 -0.567 829.7374 -400.2553)" fill="#7CA836" width="1.001" height="8.968"/>
			</g>
			<g>
				
					<rect x="519.565" y="22.774" transform="matrix(-0.567 0.8237 -0.8237 -0.567 837.4073 -385.6639)" fill="#7CA836" width="1.001" height="8.968"/>
			</g>
		</g>
		<g>
			<g>
				<polygon fill="#7CA836" points="509.298,52.372 509.695,51.976 499.283,41.563 500.166,36.764 499.614,36.661 498.677,41.751 
									"/>
			</g>
			<g>
				
					<rect x="500.4" y="42.385" transform="matrix(-0.1809 0.9835 -0.9835 -0.1809 635.8708 -444.2298)" fill="#7CA836" width="5.03" height="0.561"/>
			</g>
			<g>
				
					<rect x="504.093" y="46.078" transform="matrix(-0.1806 0.9836 -0.9836 -0.1806 643.694 -443.5482)" fill="#7CA836" width="5.029" height="0.56"/>
			</g>
			<g>
				
					<rect x="497.743" y="41.076" transform="matrix(0.1807 0.9835 -0.9835 0.1807 450.8941 -454.1107)" fill="#7CA836" width="0.562" height="5.03"/>
			</g>
			<g>
				
					<rect x="501.436" y="44.769" transform="matrix(0.1824 0.9832 -0.9832 0.1824 456.6935 -454.6414)" fill="#7CA836" width="0.562" height="5.028"/>
			</g>
		</g>
	</g>
	<g>
		<g>
			<polygon fill="#5A4A42" points="847.56,32.753 840.779,32.753 839.327,82.945 849.013,82.945 			"/>
			<polygon fill="#473730" points="828.96,45.405 825.727,48.64 842.424,66.724 847.043,62.104 			"/>
			<circle fill="#8BC53F" cx="823.956" cy="42.952" r="11.01"/>
			<circle fill="#7CA836" cx="844.502" cy="21.794" r="20.549"/>
			<circle fill="#8BC53F" cx="846.342" cy="20.97" r="18.709"/>
		</g>
		<g>
			<g>
				<polygon fill="#7CA836" points="844.736,40.233 845.736,40.233 845.736,13.977 852.903,9.036 852.336,8.212 844.736,13.451 				
					"/>
			</g>
			<g>
				
					<rect x="844.445" y="19.446" transform="matrix(-0.8233 0.5676 -0.5676 -0.8233 1559.1758 -445.4839)" fill="#7CA836" width="8.967" height="1"/>
			</g>
			<g>
				
					<rect x="844.445" y="28.758" transform="matrix(-0.8233 0.5676 -0.5676 -0.8233 1564.4611 -428.5062)" fill="#7CA836" width="8.967" height="1"/>
			</g>
			<g>
				
					<rect x="841.093" y="10.462" transform="matrix(-0.567 0.8237 -0.8237 -0.567 1331.1095 -669.7993)" fill="#7CA836" width="1.001" height="8.968"/>
			</g>
			<g>
				
					<rect x="841.093" y="19.774" transform="matrix(-0.567 0.8237 -0.8237 -0.567 1338.7794 -655.2078)" fill="#7CA836" width="1.001" height="8.968"/>
			</g>
		</g>
		<g>
			<g>
				<polygon fill="#7CA836" points="830.827,51.372 831.223,50.976 820.811,40.563 821.694,35.764 821.142,35.661 820.206,40.751 
									"/>
			</g>
			<g>
				
					<rect x="821.928" y="41.385" transform="matrix(-0.1809 0.9835 -0.9835 -0.1809 1014.5914 -761.6323)" fill="#7CA836" width="5.03" height="0.561"/>
			</g>
			<g>
				
					<rect x="825.622" y="45.078" transform="matrix(-0.1806 0.9836 -0.9836 -0.1806 1022.3048 -760.9705)" fill="#7CA836" width="5.029" height="0.56"/>
			</g>
			<g>
				
					<rect x="819.271" y="40.076" transform="matrix(0.1807 0.9835 -0.9835 0.1807 713.3322 -771.1642)" fill="#7CA836" width="0.562" height="5.03"/>
			</g>
			<g>
				
					<rect x="822.964" y="43.769" transform="matrix(0.1824 0.9832 -0.9832 0.1824 718.5917 -771.5935)" fill="#7CA836" width="0.562" height="5.028"/>
			</g>
		</g>
	</g>
	<g>
		<g>
			<polygon fill="#473730" points="183.541,55.817 181.204,58.154 193.27,71.224 196.608,67.884 			"/>
			<polygon fill="#5A4A42" points="196.981,46.673 192.081,46.673 191.032,82.945 198.032,82.945 			"/>
			<circle fill="#8BC53F" cx="179.923" cy="54.044" r="7.956"/>
			<circle fill="#7CA836" cx="194.772" cy="38.755" r="14.85"/>
			<circle fill="#8BC53F" cx="196.102" cy="38.159" r="13.52"/>
		</g>
		<g>
			<g>
				<polygon fill="#7CA836" points="194.948,52.968 195.702,52.968 195.702,33.196 201.098,29.476 200.671,28.855 194.948,32.801 
									"/>
			</g>
			<g>
				
					<rect x="194.728" y="37.316" transform="matrix(-0.8232 0.5677 -0.5677 -0.8232 382.5885 -43.7458)" fill="#7CA836" width="6.753" height="0.753"/>
			</g>
			<g>
				
					<rect x="194.729" y="44.327" transform="matrix(-0.8233 0.5676 -0.5676 -0.8233 386.5781 -30.9395)" fill="#7CA836" width="6.753" height="0.754"/>
			</g>
			<g>
				
					<rect x="192.205" y="30.55" transform="matrix(-0.5678 0.8232 -0.8232 -0.5678 329.8564 -105.3378)" fill="#7CA836" width="0.753" height="6.753"/>
			</g>
			<g>
				
					<rect x="192.205" y="37.562" transform="matrix(-0.5672 0.8236 -0.8236 -0.5672 335.5283 -94.4508)" fill="#7CA836" width="0.754" height="6.753"/>
			</g>
		</g>
		<g>
			<g>
				<polygon fill="#7CA836" points="184.475,59.85 184.774,59.551 176.932,51.71 177.597,48.097 177.182,48.02 176.477,51.853 				
					"/>
			</g>
			<g>
				
					<rect x="177.774" y="52.329" transform="matrix(-0.1807 0.9835 -0.9835 -0.1807 263.8135 -114.6748)" fill="#7CA836" width="3.788" height="0.422"/>
			</g>
			<g>
				
					<rect x="180.555" y="55.109" transform="matrix(-0.1808 0.9835 -0.9835 -0.1808 269.8386 -114.1215)" fill="#7CA836" width="3.787" height="0.423"/>
			</g>
			<g>
				
					<rect x="175.773" y="51.344" transform="matrix(0.1797 0.9837 -0.9837 0.1797 196.7318 -129.4494)" fill="#7CA836" width="0.424" height="3.787"/>
			</g>
			<g>
				
					<rect x="178.554" y="54.125" transform="matrix(0.1846 0.9828 -0.9828 0.1846 200.827 -130.0163)" fill="#7CA836" width="0.423" height="3.785"/>
			</g>
		</g>
	</g>
</g>
</svg>
