<?xml version="1.0" encoding="utf-8"?>
<!-- Generator: Adobe Illustrator 16.0.0, SVG Export Plug-In . SVG Version: 6.00 Build 0)  -->
<svg version="1.2" baseProfile="tiny" id="Layer_1" xmlns="http://www.w3.org/2000/svg" xmlns:xlink="http://www.w3.org/1999/xlink"
	 x="0px" y="0px" width="41.267px" height="27.103px" viewBox="0 0 41.267 27.103" xml:space="preserve">
<g>
	<g>
		<path fill="#231F20" d="M41.216,23.115c-0.039-0.045-0.097-0.072-0.158-0.072H0.209c-0.061,0-0.119,0.027-0.158,0.072
			c-0.04,0.047-0.058,0.107-0.049,0.168c0.006,0.039,0.622,3.82,5.404,3.82h30.456c4.781,0,5.397-3.781,5.403-3.82
			C41.274,23.222,41.256,23.162,41.216,23.115z M23.706,25.779h-6.145v-1.412h6.145V25.779z"/>
		<path fill="#231F20" d="M4.452,21.572h32.363c0.468,0,0.848-0.379,0.848-0.848V0.848C37.663,0.38,37.283,0,36.815,0H4.452
			C3.984,0,3.604,0.38,3.604,0.848v19.876C3.604,21.193,3.984,21.572,4.452,21.572z M6.571,2.966h28.125v15.639H6.571V2.966z"/>
	</g>
</g>
</svg>
