<?xml version="1.0" encoding="utf-8"?>
<!-- Generator: Adobe Illustrator 16.0.0, SVG Export Plug-In . SVG Version: 6.00 Build 0)  -->
<svg version="1.2" baseProfile="tiny" id="Layer_1" xmlns="http://www.w3.org/2000/svg" xmlns:xlink="http://www.w3.org/1999/xlink"
	 x="0px" y="0px" width="20.332px" height="35px" viewBox="0 0 20.332 35" xml:space="preserve">
<g>
	<path fill="#231F20" d="M17.968,0H2.364C1.064,0,0,1.063,0,2.365v30.27C0,33.936,1.064,35,2.364,35h15.604
		c1.3,0,2.364-1.063,2.364-2.363V2.365C20.332,1.063,19.268,0,17.968,0z M7.67,1.705h4.992c0.158,0,0.286,0.127,0.286,0.287
		c0,0.157-0.128,0.285-0.286,0.285H7.67c-0.158,0-0.286-0.128-0.286-0.285C7.384,1.832,7.512,1.705,7.67,1.705z M10.166,33.819
		c-0.653,0-1.182-0.529-1.182-1.184s0.529-1.182,1.182-1.182c0.652,0,1.182,0.527,1.182,1.182S10.818,33.819,10.166,33.819z
		 M18.688,30.625H1.645V3.75h17.042V30.625z"/>
</g>
</svg>
