<?xml version="1.0" encoding="utf-8"?>
<!-- Generator: Adobe Illustrator 16.0.0, SVG Export Plug-In . SVG Version: 6.00 Build 0)  -->
<svg version="1.2" baseProfile="tiny" id="Layer_1" xmlns="http://www.w3.org/2000/svg" xmlns:xlink="http://www.w3.org/1999/xlink"
	 x="0px" y="0px" width="28.891px" height="39.491px" viewBox="0 0 28.891 39.491" xml:space="preserve">
<g>
	<path fill="#231F20" d="M26.213,0H2.678C1.194,0,0,1.199,0,2.682v34.129c0,1.477,1.194,2.68,2.678,2.68h23.535
		c1.479,0,2.678-1.201,2.678-2.68V2.682C28.894,1.199,27.692,0,26.213,0z M14.446,38.487c-0.881,0-1.593-0.713-1.593-1.592
		c0-0.881,0.712-1.594,1.593-1.594c0.878,0,1.593,0.713,1.593,1.594C16.039,37.774,15.325,38.487,14.446,38.487z M26.181,33.907
		H2.711V3.222h23.469V33.907z"/>
</g>
</svg>
